<?xml version="1.0" ?><!-- Uploaded to: SVG Repo, www.svgrepo.com, Generator: SVG Repo Mixer Tools -->
<svg width="800px" height="800px" viewBox="0 0 32 32" id="OBJECT" xmlns="http://www.w3.org/2000/svg"><defs><style>.cls-1{fill:#b2b2b2;}</style></defs><title/><path class="cls-1" d="M30.29,21.94A3,3,0,0,0,31,19.5h0a2.93,2.93,0,0,0-1.36-2A3,3,0,0,0,26.89,13H22.5a1,1,0,0,1-1-1V5a4,4,0,0,0-4-4h-2a1,1,0,0,0-1,1v8.46a1,1,0,0,1-.74,1l-6,1.6A1,1,0,0,0,7,14V28a1,1,0,0,0,.76,1l7.52,1.88a5,5,0,0,0,1.21.15h9.4a3,3,0,0,0,2.71-4.5,2.93,2.93,0,0,0,1.36-2,3,3,0,0,0-.35-2A3.17,3.17,0,0,0,30.29,21.94Z"/><path d="M6,10H2a1,1,0,0,0-1,1V30a1,1,0,0,0,1,1H6a3,3,0,0,0,3-3V13A3,3,0,0,0,6,10Z"/></svg>